<svg width="132" height="25" viewBox="0 0 132 25" fill="none" xmlns="http://www.w3.org/2000/svg">
    <path
        d="M8 24H0.818182V0.727272H8.31818C10.5758 0.727272 12.5076 1.19318 14.1136 2.125C15.7197 3.04924 16.9508 4.37879 17.8068 6.11364C18.6629 7.84091 19.0909 9.90909 19.0909 12.3182C19.0909 14.7424 18.6591 16.8295 17.7955 18.5795C16.9318 20.322 15.6742 21.6629 14.0227 22.6023C12.3712 23.5341 10.3636 24 8 24ZM3.63636 21.5H7.81818C9.74242 21.5 11.3371 21.1288 12.6023 20.3864C13.8674 19.6439 14.8106 18.5871 15.4318 17.2159C16.053 15.8447 16.3636 14.2121 16.3636 12.3182C16.3636 10.4394 16.0568 8.82197 15.4432 7.46591C14.8295 6.10227 13.9129 5.05682 12.6932 4.32954C11.4735 3.5947 9.95455 3.22727 8.13636 3.22727H3.63636V21.5ZM30.7727 24.3636C29.0909 24.3636 27.6402 23.9924 26.4205 23.25C25.2083 22.5 24.2727 21.4545 23.6136 20.1136C22.9621 18.7652 22.6364 17.197 22.6364 15.4091C22.6364 13.6212 22.9621 12.0455 23.6136 10.6818C24.2727 9.31061 25.1894 8.24242 26.3636 7.47727C27.5455 6.70455 28.9242 6.31818 30.5 6.31818C31.4091 6.31818 32.3068 6.4697 33.1932 6.77273C34.0795 7.07576 34.8864 7.56818 35.6136 8.25C36.3409 8.92424 36.9205 9.81818 37.3523 10.9318C37.7841 12.0455 38 13.4167 38 15.0455V16.1818H24.5455V13.8636H35.2727C35.2727 12.8788 35.0758 12 34.6818 11.2273C34.2955 10.4545 33.7424 9.8447 33.0227 9.39773C32.3106 8.95076 31.4697 8.72727 30.5 8.72727C29.4318 8.72727 28.5076 8.99242 27.7273 9.52273C26.9545 10.0455 26.3598 10.7273 25.9432 11.5682C25.5265 12.4091 25.3182 13.3106 25.3182 14.2727V15.8182C25.3182 17.1364 25.5455 18.2538 26 19.1705C26.4621 20.0795 27.1023 20.7727 27.9205 21.25C28.7386 21.7197 29.6894 21.9545 30.7727 21.9545C31.4773 21.9545 32.1136 21.8561 32.6818 21.6591C33.2576 21.4545 33.7538 21.1515 34.1705 20.75C34.5871 20.3409 34.9091 19.8333 35.1364 19.2273L37.7273 19.9545C37.4545 20.8333 36.9962 21.6061 36.3523 22.2727C35.7083 22.9318 34.9129 23.447 33.9659 23.8182C33.0189 24.1818 31.9545 24.3636 30.7727 24.3636ZM55.821 6.54545L49.3665 24H46.6392L40.1847 6.54545H43.0938L47.9119 20.4545H48.0938L52.9119 6.54545H55.821ZM68.2472 0.727272H73.1108V16.9545C73.1108 18.4545 72.7737 19.7576 72.0994 20.8636C71.4328 21.9697 70.5047 22.822 69.3153 23.4205C68.1259 24.0189 66.7434 24.3182 65.1676 24.3182C63.7661 24.3182 62.4934 24.072 61.3494 23.5795C60.2131 23.0795 59.3116 22.322 58.6449 21.3068C57.9782 20.2841 57.6487 19 57.6562 17.4545H62.554C62.5691 18.0682 62.6941 18.5947 62.929 19.0341C63.1714 19.4659 63.5009 19.7992 63.9176 20.0341C64.3419 20.2614 64.8419 20.375 65.4176 20.375C66.0237 20.375 66.535 20.2462 66.9517 19.9886C67.3759 19.7235 67.6979 19.3371 67.9176 18.8295C68.1373 18.322 68.2472 17.697 68.2472 16.9545V0.727272ZM84.9744 24.3409C83.2093 24.3409 81.6828 23.9659 80.3949 23.2159C79.1146 22.4583 78.1259 21.4053 77.429 20.0568C76.732 18.7008 76.3835 17.1288 76.3835 15.3409C76.3835 13.5379 76.732 11.9621 77.429 10.6136C78.1259 9.25758 79.1146 8.20454 80.3949 7.45454C81.6828 6.69697 83.2093 6.31818 84.9744 6.31818C86.7396 6.31818 88.2623 6.69697 89.5426 7.45454C90.8305 8.20454 91.8229 9.25758 92.5199 10.6136C93.2169 11.9621 93.5653 13.5379 93.5653 15.3409C93.5653 17.1288 93.2169 18.7008 92.5199 20.0568C91.8229 21.4053 90.8305 22.4583 89.5426 23.2159C88.2623 23.9659 86.7396 24.3409 84.9744 24.3409ZM84.9972 20.5909C85.8002 20.5909 86.4706 20.3636 87.0085 19.9091C87.5464 19.447 87.9517 18.8182 88.2244 18.0227C88.5047 17.2273 88.6449 16.322 88.6449 15.3068C88.6449 14.2917 88.5047 13.3864 88.2244 12.5909C87.9517 11.7955 87.5464 11.1667 87.0085 10.7045C86.4706 10.2424 85.8002 10.0114 84.9972 10.0114C84.1866 10.0114 83.5047 10.2424 82.9517 10.7045C82.4063 11.1667 81.9934 11.7955 81.7131 12.5909C81.4403 13.3864 81.304 14.2917 81.304 15.3068C81.304 16.322 81.4403 17.2273 81.7131 18.0227C81.9934 18.8182 82.4063 19.447 82.9517 19.9091C83.5047 20.3636 84.1866 20.5909 84.9972 20.5909ZM96.804 24V0.727272H101.645V9.47727H101.793C102.005 9.00758 102.312 8.5303 102.713 8.04545C103.122 7.55303 103.652 7.14394 104.304 6.81818C104.963 6.48485 105.781 6.31818 106.759 6.31818C108.031 6.31818 109.205 6.65152 110.281 7.31818C111.357 7.97727 112.217 8.97348 112.861 10.3068C113.505 11.6326 113.827 13.2955 113.827 15.2955C113.827 17.2424 113.512 18.8864 112.884 20.2273C112.262 21.5606 111.414 22.572 110.338 23.2614C109.27 23.9432 108.073 24.2841 106.747 24.2841C105.808 24.2841 105.009 24.1288 104.349 23.8182C103.698 23.5076 103.164 23.1174 102.747 22.6477C102.33 22.1705 102.012 21.6894 101.793 21.2045H101.577V24H96.804ZM101.543 15.2727C101.543 16.3106 101.687 17.2159 101.974 17.9886C102.262 18.7614 102.679 19.3636 103.224 19.7955C103.77 20.2197 104.433 20.4318 105.213 20.4318C106.001 20.4318 106.668 20.2159 107.213 19.7841C107.759 19.3447 108.171 18.7386 108.452 17.9659C108.74 17.1856 108.884 16.2879 108.884 15.2727C108.884 14.2652 108.743 13.3788 108.463 12.6136C108.183 11.8485 107.77 11.25 107.224 10.8182C106.679 10.3864 106.009 10.1705 105.213 10.1705C104.425 10.1705 103.759 10.3788 103.213 10.7955C102.675 11.2121 102.262 11.803 101.974 12.5682C101.687 13.3333 101.543 14.2348 101.543 15.2727ZM131.58 11.5227L127.148 11.7955C127.072 11.4167 126.909 11.0758 126.659 10.7727C126.409 10.4621 126.08 10.2159 125.67 10.0341C125.269 9.8447 124.788 9.75 124.227 9.75C123.477 9.75 122.845 9.90909 122.33 10.2273C121.814 10.5379 121.557 10.9545 121.557 11.4773C121.557 11.8939 121.723 12.2462 122.057 12.5341C122.39 12.822 122.962 13.053 123.773 13.2273L126.932 13.8636C128.629 14.2121 129.894 14.7727 130.727 15.5455C131.561 16.3182 131.977 17.3333 131.977 18.5909C131.977 19.7348 131.64 20.7386 130.966 21.6023C130.299 22.4659 129.383 23.1402 128.216 23.625C127.057 24.1023 125.72 24.3409 124.205 24.3409C121.894 24.3409 120.053 23.8598 118.682 22.8977C117.318 21.928 116.519 20.6098 116.284 18.9432L121.045 18.6932C121.189 19.3977 121.538 19.9356 122.091 20.3068C122.644 20.6705 123.352 20.8523 124.216 20.8523C125.064 20.8523 125.746 20.6894 126.261 20.3636C126.784 20.0303 127.049 19.6023 127.057 19.0795C127.049 18.6402 126.864 18.2803 126.5 18C126.136 17.7121 125.576 17.4924 124.818 17.3409L121.795 16.7386C120.091 16.3977 118.822 15.8068 117.989 14.9659C117.163 14.125 116.75 13.053 116.75 11.75C116.75 10.6288 117.053 9.66288 117.659 8.85227C118.273 8.04167 119.133 7.41667 120.239 6.97727C121.352 6.53788 122.655 6.31818 124.148 6.31818C126.352 6.31818 128.087 6.78409 129.352 7.71591C130.625 8.64773 131.367 9.91667 131.58 11.5227Z"
        fill="black" />
</svg>
